<?xml version="1.0" encoding="UTF-8" standalone="no"?>
<svg
   viewBox="0 0 355.0646 80"
   version="1.1"
   id="svg28"
   width="355.06461"
   height="80"
   sodipodi:docname="logo_axsdb.svg"
   inkscape:version="1.3.2 (1:1.3.2+202311252150+091e20ef0f)"
   xmlns:inkscape="http://www.inkscape.org/namespaces/inkscape"
   xmlns:sodipodi="http://sodipodi.sourceforge.net/DTD/sodipodi-0.dtd"
   xmlns:xlink="http://www.w3.org/1999/xlink"
   xmlns="http://www.w3.org/2000/svg"
   xmlns:svg="http://www.w3.org/2000/svg">
  <sodipodi:namedview
     id="namedview1"
     pagecolor="#ffffff"
     bordercolor="#666666"
     borderopacity="1.0"
     inkscape:showpageshadow="2"
     inkscape:pageopacity="0.0"
     inkscape:pagecheckerboard="0"
     inkscape:deskcolor="#d1d1d1"
     inkscape:zoom="3.3750265"
     inkscape:cx="176.29491"
     inkscape:cy="58.9625"
     inkscape:window-width="2560"
     inkscape:window-height="1376"
     inkscape:window-x="0"
     inkscape:window-y="27"
     inkscape:window-maximized="1"
     inkscape:current-layer="svg28" />
  <defs
     id="defs11">
    <linearGradient
       id="iconGradient"
       x1="-7.2000003"
       y1="-7.2000003"
       x2="87.199997"
       y2="87.199997"
       gradientUnits="userSpaceOnUse">
      <stop
         offset="0%"
         style="stop-color:#ff6b35;stop-opacity:1"
         id="stop1" />
      <stop
         offset="50%"
         style="stop-color:#f7931e;stop-opacity:1"
         id="stop2" />
      <stop
         offset="100%"
         style="stop-color:#00d2ff;stop-opacity:1"
         id="stop3" />
    </linearGradient>
    <linearGradient
       id="textGradient"
       x1="53.611717"
       y1="73.12709"
       x2="125.26408"
       y2="73.12709"
       gradientTransform="matrix(3.5409401,0,0,0.84110969,-94.294313,-51.641638)"
       gradientUnits="userSpaceOnUse">
      <stop
         offset="0%"
         style="stop-color:#ff6b35;stop-opacity:1"
         id="stop4" />
      <stop
         offset="25%"
         style="stop-color:#f7931e;stop-opacity:1"
         id="stop5" />
      <stop
         offset="75%"
         style="stop-color:#00d2ff;stop-opacity:1"
         id="stop6" />
      <stop
         offset="100%"
         style="stop-color:#00d2ff;stop-opacity:1"
         id="stop7" />
    </linearGradient>
    <linearGradient
       id="rayGradient"
       x1="0"
       y1="0"
       x2="0"
       y2="1">
      <stop
         offset="0%"
         style="stop-color:#ffff64;stop-opacity:0"
         id="stop8" />
      <stop
         offset="50%"
         style="stop-color:#ffff64;stop-opacity:0.8"
         id="stop9" />
      <stop
         offset="100%"
         style="stop-color:#ffff64;stop-opacity:0"
         id="stop10" />
    </linearGradient>
    <linearGradient
       xlink:href="#rayGradient"
       id="linearGradient28"
       x1="90.509666"
       y1="0"
       x2="90.509666"
       y2="11.313708"
       gradientTransform="scale(0.1767767,5.6568542)"
       gradientUnits="userSpaceOnUse" />
    <linearGradient
       xlink:href="#rayGradient"
       id="linearGradient29"
       x1="181.01933"
       y1="0"
       x2="181.01933"
       y2="11.313708"
       gradientTransform="scale(0.1767767,5.6568542)"
       gradientUnits="userSpaceOnUse" />
    <linearGradient
       xlink:href="#rayGradient"
       id="linearGradient30"
       x1="271.52899"
       y1="0"
       x2="271.52899"
       y2="11.313708"
       gradientTransform="scale(0.1767767,5.6568542)"
       gradientUnits="userSpaceOnUse" />
    <linearGradient
       xlink:href="#rayGradient"
       id="linearGradient31"
       x1="362.03867"
       y1="0"
       x2="362.03867"
       y2="11.313708"
       gradientTransform="scale(0.1767767,5.6568542)"
       gradientUnits="userSpaceOnUse" />
  </defs>
  <g
     id="g28">
    <rect
       x="0"
       y="0"
       width="80"
       height="80"
       rx="12"
       ry="12"
       fill="url(#iconGradient)"
       id="rect11"
       style="fill:url(#iconGradient)" />
    <g
       transform="translate(12,12.935672)"
       id="g21">
      <rect
         x="0"
         y="0"
         width="56"
         height="8"
         rx="4"
         ry="4"
         fill="rgba(255,255,255,0.9)"
         id="rect12" />
      <rect
         x="42"
         y="0"
         width="14"
         height="8"
         rx="4"
         ry="4"
         fill="rgba(255,255,255,0.6)"
         id="rect13" />
      <rect
         x="0"
         y="12"
         width="56"
         height="8"
         rx="4"
         ry="4"
         fill="rgba(255,255,255,0.9)"
         id="rect14" />
      <rect
         x="42"
         y="12"
         width="14"
         height="8"
         rx="4"
         ry="4"
         fill="rgba(255,255,255,0.6)"
         id="rect15" />
      <rect
         x="0"
         y="24"
         width="56"
         height="8"
         rx="4"
         ry="4"
         fill="rgba(255,255,255,0.9)"
         id="rect16" />
      <rect
         x="42"
         y="24"
         width="14"
         height="8"
         rx="4"
         ry="4"
         fill="rgba(255,255,255,0.6)"
         id="rect17" />
      <rect
         x="0"
         y="36"
         width="56"
         height="8"
         rx="4"
         ry="4"
         fill="rgba(255,255,255,0.9)"
         id="rect18" />
      <rect
         x="42"
         y="36"
         width="14"
         height="8"
         rx="4"
         ry="4"
         fill="rgba(255,255,255,0.6)"
         id="rect19" />
      <rect
         x="0"
         y="48"
         width="56"
         height="8"
         rx="4"
         ry="4"
         fill="rgba(255,255,255,0.9)"
         id="rect20" />
      <rect
         x="42"
         y="48"
         width="14"
         height="8"
         rx="4"
         ry="4"
         fill="rgba(255,255,255,0.6)"
         id="rect21" />
    </g>
    <g
       opacity="0.4"
       id="g25">
      <rect
         x="16"
         y="0"
         width="2"
         height="64"
         fill="url(#linearGradient28)"
         transform="rotate(-15,17,32)"
         id="rect22"
         style="fill:url(#linearGradient28)" />
      <rect
         x="32"
         y="0"
         width="2"
         height="64"
         fill="url(#linearGradient29)"
         id="rect23"
         style="fill:url(#linearGradient29)" />
      <rect
         x="48"
         y="0"
         width="2"
         height="64"
         fill="url(#linearGradient30)"
         transform="rotate(15,49,32)"
         id="rect24"
         style="fill:url(#linearGradient30)" />
      <rect
         x="64"
         y="0"
         width="2"
         height="64"
         fill="url(#linearGradient31)"
         transform="rotate(-10,65,32)"
         id="rect25"
         style="fill:url(#linearGradient31)" />
    </g>
    <!-- Absorption particles -->
    <circle
       cx="24"
       cy="20"
       r="2"
       fill="rgba(255,100,100,0.6)"
       id="circle25" />
    <circle
       cx="48"
       cy="36"
       r="2"
       fill="rgba(255,100,100,0.6)"
       id="circle26" />
    <circle
       cx="20"
       cy="52"
       r="2"
       fill="rgba(255,100,100,0.6)"
       id="circle27" />
    <circle
       cx="60"
       cy="28"
       r="2"
       fill="rgba(255,100,100,0.6)"
       id="circle28" />
  </g>
  <path
     d="M 155.04055,69.163007 H 142.0163 l -5.17735,-13.469184 h -23.70252 l -4.89421,13.469184 H 95.54155 l 23.0958,-59.2967673 h 12.66023 z m -22.04416,-23.45984 -8.17049,-22.003711 -8.00871,22.003711 z m 20.85312,23.45984 15.49159,-22.125056 -14.84442,-20.830719 h 13.87366 l 7.60423,11.810816 8.0087,-11.810816 h 13.34784 l -14.56128,20.345343 15.89607,22.610432 h -13.95456 l -8.73677,-13.307392 -8.81767,13.307392 z m 45.5264,-12.255744 11.40634,-1.739264 q 0.72806,3.316736 2.9527,5.056 2.22464,1.698816 6.22899,1.698816 4.40883,0 6.63347,-1.61792 1.49658,-1.132544 1.49658,-3.0336 0,-1.294336 -0.80896,-2.143744 -0.84941,-0.80896 -3.80211,-1.496576 -13.75232,-3.0336 -17.43309,-5.541376 -5.09645,-3.478528 -5.09645,-9.667071 0,-5.581824 4.40883,-9.383936 4.40884,-3.802112 13.67143,-3.802112 8.81766,0 13.10515,2.871808 4.28749,2.871808 5.90541,8.49408 l -10.71872,1.981952 q -0.68762,-2.507776 -2.62912,-3.84256 -1.90106,-1.334784 -5.46048,-1.334784 -4.48973,0 -6.43123,1.253888 -1.29434,0.889856 -1.29434,2.305536 0,1.21344 1.13254,2.062847 1.53703,1.132544 10.59738,3.195392 9.1008,2.062848 12.70067,5.056 3.55943,3.0336 3.55943,8.453632 0,5.905408 -4.93466,10.152448 -4.93466,4.24704 -14.60173,4.24704 -8.77721,0 -13.91411,-3.559424 -5.09645,-3.559424 -6.67392,-9.667072 z M 247.49099,9.8662397 h 21.88236 q 7.40199,0 11.28499,1.1325443 5.2178,1.537024 8.93901,5.46048 3.72122,3.923456 5.66272,9.626624 1.94151,5.66272 1.94151,13.995007 0,7.321088 -1.82016,12.619776 -2.22464,6.47168 -6.35034,10.476032 -3.1145,3.0336 -8.41318,4.732416 -3.96391,1.253888 -10.59738,1.253888 h -22.52953 z m 11.9726,10.0311043 v 39.275007 h 8.93901 q 5.01555,0 7.24019,-0.566272 2.91226,-0.728064 4.81331,-2.467328 1.94151,-1.739264 3.15495,-5.703168 1.21344,-4.004352 1.21344,-10.880512 0,-6.876159 -1.21344,-10.556927 -1.21344,-3.680768 -3.39763,-5.743616 -2.1842,-2.062848 -5.54138,-2.790912 -2.50778,-0.566272 -9.82886,-0.566272 z M 305.39447,9.8662397 h 23.70252 q 7.03796,0 10.47604,0.6067203 3.47852,0.566272 6.18854,2.42688 2.75046,1.860608 4.57062,4.975104 1.82016,3.074048 1.82016,6.916608 0,4.166144 -2.26508,7.644672 -2.22464,3.478528 -6.0672,5.217792 5.42003,1.577471 8.33228,5.379583 2.91226,3.802112 2.91226,8.939008 0,4.0448 -1.90106,7.88736 -1.8606,3.802112 -5.13689,6.107648 -3.23584,2.265088 -8.00871,2.790912 -2.99315,0.323584 -14.43993,0.40448 h -20.18355 z m 11.9726,9.8693123 v 13.711872 h 7.84692 q 6.9975,0 8.69632,-0.20224 3.07404,-0.364032 4.81331,-2.103296 1.77971,-1.779712 1.77971,-4.65152 0,-2.750464 -1.53702,-4.44928 -1.49658,-1.739264 -4.48973,-2.103296 -1.77971,-0.20224 -10.23335,-0.20224 z m 0,23.581183 v 15.855616 h 11.08276 q 6.47168,0 8.21094,-0.364032 2.66957,-0.485376 4.32794,-2.345984 1.69881,-1.901056 1.69881,-5.056 0,-2.669568 -1.29433,-4.530176 -1.29434,-1.860608 -3.76167,-2.710016 -2.42688,-0.849408 -10.59737,-0.849408 z"
     id="text28"
     style="font-weight:bold;font-size:82.8375px;font-family:Arial, sans-serif;letter-spacing:-2px;fill:url(#textGradient)"
     aria-label="AxsDB" />
</svg>
